<svg width="187" height="454" xmlns="http://www.w3.org/2000/svg">
 <g>
  <title>background</title>
  <rect fill="none" id="canvas_background" height="456" width="189" y="-1" x="-1"/>
 </g>

 <g>
  <title>Layer 1</title>
  <g stroke="null" id="svg_15">
   <g stroke="null" id="svg_16">
    <path stroke="null" id="svg_1" fill="white" d="m27.847388,413.076109c-35.629852,-31.16968 -35.629852,-81.880776 0,-113.049494c35.630085,-31.169194 93.598014,-31.169194 129.227915,0c35.629901,31.168718 35.629901,81.879814 0,113.049494c-35.629891,31.16967 -93.597829,31.16967 -129.227915,0zm124.921549,-109.282106c-33.25587,-29.092391 -87.359304,-29.092391 -120.606406,0c-33.255744,29.091757 -33.255744,76.422001 0,105.506234c33.25588,29.092232 87.359304,29.092232 120.606406,0c33.25624,-29.092232 33.25624,-76.420881 0,-105.506234z"/>
    <path stroke="null" id="svg_2" fill="white" d="m153.761803,339.594669c-0.320654,-0.279871 -0.580623,-0.636502 -0.727784,-1.031522c-3.162685,-8.185035 -8.326993,-15.439948 -15.34559,-21.579849c-7.009819,-6.132219 -15.310858,-10.649979 -24.668918,-13.424224c-1.239108,-0.371509 -2.070912,-1.37953 -2.070912,-2.524121l0,-19.427714c0,-0.818668 0.433268,-1.591908 1.16982,-2.09968c0.745154,-0.507921 1.706933,-0.682246 2.608026,-0.485212c15.995491,3.502068 30.639076,10.763692 42.336611,21.004427c11.697534,10.240576 19.998573,23.043335 24.00183,37.036262c0.225227,0.796435 0.017186,1.637643 -0.554659,2.288547c-0.580613,0.6525 -1.464335,1.023533 -2.40016,1.023533l-22.208063,0c-0.831804,0 -1.594319,-0.295869 -2.157572,-0.788436l0.017371,0.007989zm-11.767008,-26.3786c7.157164,6.261127 12.555487,13.598877 16.073373,21.830291l16.06478,0c-4.037814,-11.764031 -11.377064,-22.512537 -21.367666,-31.252357c-9.990601,-8.73982 -22.277342,-15.160078 -35.71655,-18.684854l0,14.05354c9.409988,3.069787 17.797667,7.792264 24.954841,14.060904l-0.008778,-0.007523z"/>
    <path stroke="null" id="svg_3" fill="white" d="m183.098324,163.239109l0,191.263907c0,1.581679 -1.464705,2.846693 -3.253359,2.846693c-1.788654,0 -3.253719,-1.281012 -3.253719,-2.846693l0,-191.263907c0,-1.581392 1.465064,-2.846485 3.253719,-2.846485c1.788654,0 3.253359,1.281746 3.253359,2.846485z"/>
    <path stroke="null" id="svg_4" fill="white" d="m182.797916,92.377284c0,1.581352 -1.461302,2.846535 -3.245145,2.846535c-1.783843,0 -3.245145,-1.281815 -3.245145,-2.846535c0,-40.550006 -37.612861,-73.542717 -83.841369,-73.542717c-46.228498,0 -83.841446,32.992711 -83.841446,73.542717c0,1.581352 -1.461293,2.846535 -3.245155,2.846535c-1.783843,0 -3.245019,-1.281815 -3.245019,-2.846535c0,-43.696077 40.535271,-79.252349 90.350585,-79.252349c49.815323,0 90.350614,35.556272 90.350614,79.252349l-0.03791,0l-0.00001,0z"/>
    <path stroke="null" id="svg_5" fill="white" d="m27.844832,413.076109c-11.697534,-10.233697 -20.007157,-23.043811 -24.010326,-37.037382c-0.225305,-0.794839 -0.017332,-1.636047 0.554562,-2.280558c0.580545,-0.6525 1.464325,-1.023523 2.400131,-1.023523l22.208092,0c1.308407,0 2.469448,0.727664 2.885355,1.811969c3.162685,8.18663 8.326993,15.4409 15.345405,21.580484c7.010003,6.131575 15.311033,10.649504 24.669103,13.424224c1.238933,0.363034 2.070737,1.378568 2.070737,2.523645l0,19.427872c0,0.818817 -0.433278,1.591264 -1.169645,2.099829c-0.745339,0.506969 -1.707118,0.681285 -2.616803,0.484577c-15.995491,-3.502385 -30.630299,-10.763048 -42.336611,-20.996745l0,-0.014402l0,0.00001zm-17.061096,-35.020716c4.037833,11.764199 11.37686,22.512864 21.367462,31.252843c9.990601,8.739979 22.277526,15.161029 35.725328,18.692209l0,-14.052747c-9.409988,-3.07058 -17.797677,-7.793215 -24.954841,-14.054333c-7.157164,-6.261127 -12.555302,-13.59856 -16.073373,-21.829974l-16.064576,0l0,-0.007999z"/>
    <path stroke="null" id="svg_6" fill="white" d="m111.841089,433.37558c-0.571836,-0.500576 -0.89249,-1.175467 -0.89249,-1.887133l0,-19.427872c0,-1.145077 0.831804,-2.160611 2.070912,-2.525241c9.35807,-2.766731 17.650322,-7.283055 24.668918,-13.424234c7.018596,-6.139574 12.174137,-13.393843 15.345405,-21.580484c0.415907,-1.082699 1.577143,-1.810363 2.88554,-1.810363l22.208053,0c0.935825,0 1.819556,0.379023 2.400169,1.021927c0.580438,0.644501 0.779886,1.493708 0.554474,2.282154c-4.01185,13.993561 -12.312704,26.795686 -24.010423,37.035776c-11.697534,10.241696 -26.341119,17.502359 -42.336426,21.004744c-0.90987,0.196717 -1.871649,0.015998 -2.60821,-0.484577c-0.095243,-0.07676 -0.190485,-0.143925 -0.277145,-0.220695l-0.008778,0.015998zm5.19905,-19.435871l0,14.054342c13.447802,-3.532776 25.734542,-9.953826 35.725143,-18.692209c9.990601,-8.739989 17.321074,-19.488644 21.367666,-31.252843l-16.06478,0c-3.509293,8.231424 -8.907431,15.560847 -16.073373,21.829974c-7.157164,6.261117 -15.544668,10.991742 -24.954656,14.060736z"/>
    <path stroke="null" id="svg_7" fill="white" d="m4.633017,339.594669c-0.086659,-0.075164 -0.17327,-0.159923 -0.242598,-0.243087c-0.580545,-0.644501 -0.779847,-1.492112 -0.554562,-2.288547c4.003169,-13.992926 12.304131,-26.803199 24.010443,-37.036262c11.706127,-10.233221 26.341119,-17.502359 42.336426,-21.004427c0.909861,-0.197035 1.871649,-0.015195 2.60821,0.485053c0.736367,0.507931 1.16982,1.281171 1.16982,2.099839l0,19.427714c0,1.144591 -0.831989,2.160284 -2.070912,2.524121c-9.35807,2.766722 -17.650506,7.284333 -24.669103,13.424224c-7.009819,6.132229 -12.173952,13.393209 -15.345405,21.579849c-0.415907,1.084305 -1.576958,1.811969 -2.885355,1.811969l-22.208043,0c-0.814511,0 -1.594397,-0.279871 -2.157611,-0.772447l0.00869,-0.007999zm63.236199,-54.485521c-13.447802,3.5323 -25.734727,9.952706 -35.725328,18.692536c-9.990601,8.739661 -17.320967,19.488317 -21.367462,31.252674l16.064576,0c3.509293,-8.231414 8.907606,-15.561967 16.073373,-21.830767c7.157164,-6.261127 15.544853,-10.983435 24.954841,-14.061063l0,-14.053381z"/>
    <path stroke="null" id="svg_8" fill="white" d="m142.002474,313.216069c-27.311676,-23.892374 -71.762348,-23.900056 -99.074024,0c-27.320366,23.899739 -27.311695,62.777875 0,86.670893c27.311676,23.891423 71.753755,23.899422 99.074024,0c27.320269,-23.901018 27.311676,-62.779144 0,-86.670893z"/>
    <path stroke="null" id="svg_9" fill="#110A1D" d="m117.72277,378.42483l-50.32449,0.292667c-2.119904,0.012787 -3.827022,1.525695 -3.812946,3.379246l0.011879,1.570478c0.014075,1.853541 1.744046,3.347259 3.86396,3.334462l50.324296,-0.291062c2.119914,-0.012797 3.827216,-1.525705 3.813141,-3.380851l-0.011888,-1.568882c-0.014075,-1.855147 -1.744046,-3.347259 -3.863951,-3.336058z"/>
    <path stroke="null" id="svg_10" fill="#110A1D" d="m74.254902,351.851435c-0.545881,0 -1.100356,-0.105545 -1.602912,-0.318251l-3.925385,-1.660035c-1.706933,-0.727664 -2.486819,-2.493254 -1.776222,-4.031746l1.80237,-3.926201c0.554474,-1.197849 1.862871,-1.979892 3.335984,-1.986285c0.632541,0 1.256304,0.135936 1.810778,0.415807l4.679123,2.334927c0.875129,0.431805 1.50766,1.183457 1.732887,2.047066c0.225412,0.8636 0.026148,1.773579 -0.545881,2.501243l-2.564691,3.251309c-0.667273,0.849207 -1.776406,1.365772 -2.954829,1.365772l0.008778,0.006403l0,-0.00001z"/>
    <path stroke="null" id="svg_11" fill="#110A1D" d="m110.486257,351.640335c-1.178413,0 -2.296139,-0.492577 -2.97182,-1.335381l-2.538922,-3.129766c-0.589206,-0.719665 -0.797072,-1.629654 -0.589206,-2.493254c0.208041,-0.865206 0.831804,-1.623251 1.706933,-2.069448l4.826283,-2.478862c0.545881,-0.281467 1.169829,-0.431805 1.80237,-0.439794c1.473113,-0.007999 2.79888,0.758045 3.370716,1.947905l1.819546,3.812646c0.727784,1.530492 -0.025954,3.312071 -1.715526,4.055733l-4.107277,1.795971c-0.493779,0.212706 -1.048438,0.334249 -1.594319,0.334249l-0.008778,0z"/>
    <path stroke="null" id="svg_12" fill="#110A1D" d="m70.301366,375.774844c-2.20949,0.014393 -4.193752,-1.197849 -4.94749,-3.017817l-8.396282,-20.216308c-0.537288,0.228694 -1.109134,0.40302 -1.689747,0.530957c-0.684459,0.151934 -1.377695,0.227098 -2.079515,0.227098c-0.407304,0 -0.80584,-0.014393 -1.195783,-0.059176c-4.375839,-0.486173 -7.694277,-3.767863 -7.720416,-7.633292c-0.034557,-4.276438 3.916422,-7.777227 8.803401,-7.807608c4.886989,-0.030391 8.890245,3.425625 8.916209,7.700457c0,0.985153 -0.19068,1.933512 -0.589216,2.819504c-0.216634,0.486173 -0.485186,0.948369 -0.797063,1.388163l15.969343,6.761693l12.217462,-15.487279c-0.51115,-0.188718 -1.005113,-0.423806 -1.473113,-0.703677c-0.883722,-0.522967 -1.655015,-1.175467 -2.278778,-1.941512c-1.057216,-1.303404 -1.629051,-2.841896 -1.637644,-4.434766c-0.034732,-4.274832 3.916422,-7.775621 8.803401,-7.806012c0.216644,0 0.442046,0 0.65868,0.014393c4.375654,0.257489 7.910911,3.328079 8.231566,7.155118c0.147355,1.811969 -0.398536,3.548764 -1.576949,5.026484c-0.623948,0.772447 -1.386463,1.432947 -2.261592,1.955904c-0.459232,0.279871 -0.953195,0.514968 -1.464345,0.703677l12.434096,15.327356l15.709384,-6.875237c-0.294691,-0.492577 -0.528511,-1.007535 -0.70182,-1.546491c-0.208041,-0.650904 -0.320654,-1.333785 -0.320654,-2.023069c0,-0.311857 0.017371,-0.622119 0.051918,-0.924382c0.502557,-3.897406 4.263225,-6.852845 8.7429,-6.875237c4.886979,-0.030391 8.890245,3.425625 8.916199,7.700457c0.034557,4.078125 -3.58736,7.505355 -8.240343,7.785226l-0.554474,0.014393c-0.901268,0 -1.78499,-0.105555 -2.642757,-0.332643c-0.554659,-0.151934 -1.091948,-0.340642 -1.594504,-0.583739l-7.884948,19.821297c-0.719191,1.826362 -2.69486,3.054592 -4.90435,3.07059l-44.502775,0.257479l0,0.007999z"/>
    <path stroke="null" id="svg_13" fill="white" d="m183.098324,91.803858l0,261.651539c0,2.163758 -1.464705,3.894314 -3.253359,3.894314c-1.788654,0 -3.253719,-1.752442 -3.253719,-3.894314l0,-261.651539c0,-2.163364 1.465064,-3.894029 3.253719,-3.894029c1.788654,0 3.253359,1.753445 3.253359,3.894029z"/>
    <path stroke="null" id="svg_14" fill="white" d="m9.40503,89.55584l0,263.45689c0,2.178683 -1.465103,3.921175 -3.253796,3.921175c-1.788664,0 -3.253903,-1.76453 -3.253903,-3.921175l0,-263.45689c0,-2.178273 1.465229,-3.920889 3.253903,-3.920889c1.788693,0 3.253796,1.76554 3.253796,3.920889z"/>
   </g>
  </g>
 </g>
</svg>