<svg width="100" height="61" viewBox="0 0 100 61" fill="none" xmlns="http://www.w3.org/2000/svg">
<path d="M49.7325 60.1214C37.0339 60.1214 24.3458 55.2919 14.6762 45.6223C-4.65264 26.2934 -4.65264 -5.1511 14.6762 -24.4799C24.044 -33.8477 36.4927 -39 49.7325 -39C62.9722 -39 75.421 -33.8477 84.7888 -24.4799C104.118 -5.1511 104.118 26.2934 84.7888 45.6223C75.1296 55.2815 62.431 60.1214 49.7325 60.1214ZM17.2784 43.0201C35.1708 60.9126 64.2838 60.9126 82.1762 43.0201C100.069 25.1277 100.069 -3.98533 82.1762 -21.8778C73.5058 -30.5482 61.9835 -35.3153 49.7221 -35.3153C37.4607 -35.3153 25.9383 -30.5378 17.2679 -21.8778C-0.624513 -3.98533 -0.624513 25.1277 17.2679 43.0201H17.2784Z" fill="#9DADF2"/>
<path d="M49.0769 29.1142C49.2538 29.541 49.6701 29.7907 50.1073 29.7907C50.253 29.7907 50.3987 29.7595 50.5445 29.7074C54.0418 28.2398 57.2268 25.9707 59.7457 23.1395C60.1517 22.6816 60.11 21.9739 59.652 21.5679C59.194 21.162 58.4862 21.2036 58.0803 21.6616C55.78 24.2533 52.876 26.3247 49.6805 27.657C49.1185 27.8964 48.8478 28.5521 49.0872 29.1142H49.0769Z" fill="#9DADF2"/>
<path d="M68.6225 -6.56643L50.1368 -13.9566C49.8661 -14.0607 49.5747 -14.0607 49.3041 -13.9566L30.8183 -6.56643C30.3916 -6.3999 30.121 -5.99397 30.121 -5.53599V7.70377C30.1418 19.9235 37.865 30.9671 49.3353 35.1722C49.4602 35.2138 49.5851 35.2347 49.7204 35.2347C49.8558 35.2347 49.9807 35.2138 50.1056 35.1722C61.5759 30.9567 69.299 19.9235 69.3199 7.70377V-5.53599C69.3199 -5.99397 69.0493 -6.3999 68.6225 -6.56643ZM67.0925 7.70377C67.0716 18.8202 60.0978 28.9478 49.7308 32.9343C39.3638 28.9478 32.3796 18.8202 32.3588 7.70377V-4.77618L49.7308 -11.7187L67.0925 -4.77618V7.70377Z" fill="#9DADF2"/>
<path d="M42.0083 -4.82844C41.7376 -4.94293 41.4358 -4.94293 41.1548 -4.82844L36.7519 -3.06931C36.3252 -2.90277 36.0546 -2.49685 36.0546 -2.03886V2.65544C36.0546 3.26955 36.5542 3.76911 37.1683 3.76911C37.7824 3.76911 38.282 3.26955 38.282 2.65544V-1.27905L41.9771 -2.757C42.2581 -2.87149 42.4663 -3.07975 42.5912 -3.36078C42.7056 -3.63141 42.7056 -3.9332 42.5912 -4.21423C42.4767 -4.49527 42.2685 -4.70353 41.9979 -4.82844H42.0083Z" fill="#9DADF2"/>
<path d="M77.8876 -17.5789C70.3726 -25.1043 60.3698 -29.2366 49.7322 -29.2366C39.0946 -29.2366 29.1023 -25.0939 21.5768 -17.5789C6.05756 -2.05961 6.05756 23.2022 21.5768 38.7319C29.3417 46.4967 39.5317 50.3687 49.7322 50.3687C59.9326 50.3687 70.1227 46.4863 77.8876 38.7319C93.4069 23.2126 93.4069 -2.0492 77.8876 -17.5789ZM72.3814 7.70366C72.4126 21.8282 63.3883 34.1833 49.9299 38.4612C49.805 38.5029 49.6697 38.5029 49.5344 38.4612C36.076 34.1833 27.0518 21.8282 27.083 7.70366V-7.91971C27.083 -8.17992 27.2391 -8.41928 27.4889 -8.52336L49.4928 -17.3187C49.5657 -17.3499 49.6489 -17.3603 49.7322 -17.3603C49.8154 -17.3603 49.8988 -17.3499 49.9716 -17.3187L71.9755 -8.51294C72.2253 -8.41927 72.3814 -8.17991 72.3814 -7.90929V7.71408V7.70366Z" fill="#9DADF2"/>
</svg>
